<svg xmlns="http://www.w3.org/2000/svg" width="192.725" height="52.294" viewBox="0 0 192.725 52.294">
  <g id="Grupo_5883" data-name="Grupo 5883" transform="translate(0 0)">
    <g id="Grupo_209" data-name="Grupo 209" transform="translate(0 0)">
      <g id="Grupo_1" data-name="Grupo 1" transform="translate(0)">
        <path id="Trazado_258" data-name="Trazado 258" d="M861.775,302.727a16.027,16.027,0,0,1,1.493-1.387,26.21,26.21,0,0,1,10.138-4.521,25.308,25.308,0,0,1,6.836-.5,25.955,25.955,0,0,1,8.89,2.18,28.324,28.324,0,0,1,6.685,4.167,10.262,10.262,0,0,1,1.934,2.056,5.409,5.409,0,0,1,.292,5.882,5.493,5.493,0,0,1-5.016,3.1,5.27,5.27,0,0,1-3.924-1.518,14.561,14.561,0,0,0-6.2-3.788c-4.887-1.31-9.383-.6-13.353,2.69a.738.738,0,0,1-.25.081c.075-.236.15-.473.226-.709a6.213,6.213,0,0,0,.537-2.724,6.029,6.029,0,0,0-1.976-3.924,5.152,5.152,0,0,0-4.745-1.329C862.825,302.6,862.3,302.646,861.775,302.727Z" transform="translate(-852.634 -296.263)" fill="#1dc6a3"/>
        <path id="Trazado_259" data-name="Trazado 259" d="M868.291,519.358a1.932,1.932,0,0,1,.516.2,13.121,13.121,0,0,0,6.176,2.626,13.88,13.88,0,0,0,10.7-2.527,20.312,20.312,0,0,0,1.9-1.691,5.91,5.91,0,0,1,8.927.935,5.53,5.53,0,0,1-.693,7.115,25.011,25.011,0,0,1-9.307,6.1,26.594,26.594,0,0,1-6.665,1.544,25.81,25.81,0,0,1-14.743-2.924,26.237,26.237,0,0,1-4.546-3.017,2.756,2.756,0,0,1-.308-.35c.282,0,.632-.1.834.031a4.128,4.128,0,0,0,3.2.249,5.361,5.361,0,0,0,3.993-3.238,5.11,5.11,0,0,0,.468-2.531,4.324,4.324,0,0,0-.492-2.158C868.2,519.648,868.276,519.482,868.291,519.358Z" transform="translate(-851.353 -481.504)" fill="#147489"/>
        <path id="Trazado_260" data-name="Trazado 260" d="M810.325,381.167c-.643-.134-.852-.736-1.168-1.172a26.378,26.378,0,0,1-4.416-9.474,26.99,26.99,0,0,1-.651-7.762,13.572,13.572,0,0,1,.226-2.528c.372-1.479.563-3,1.08-4.451a25.492,25.492,0,0,1,2.71-5.641c.691-1.04,1.428-2.052,2.2-3.034a6.587,6.587,0,0,1,1.1-.913c-.142.278-.267.566-.43.832a5.514,5.514,0,0,0-.187,5.9,5.637,5.637,0,0,0,6.288,2.674c.57-.167,1.131-.361,1.7-.543.082.564-.43.817-.678,1.183a14.2,14.2,0,0,0-2.02,4.378,15.626,15.626,0,0,0-.5,4.649,14.032,14.032,0,0,0,2.153,6.885c.292.476.71.874,1.04,1.33a2.343,2.343,0,0,1,.22.591c-.254-.123-.5-.26-.762-.368a5.806,5.806,0,0,0-5.06.072,5.934,5.934,0,0,0-2.956,6.752A3.968,3.968,0,0,1,810.325,381.167Z" transform="translate(-804.043 -338.287)" fill="#efb264"/>
        <path id="Trazado_261" data-name="Trazado 261" d="M841.79,524.5a3.991,3.991,0,0,0-.118-.642,5.935,5.935,0,0,1,2.956-6.753,5.806,5.806,0,0,1,5.06-.072c.26.108.508.244.762.368a.106.106,0,0,1,.076.073.105.105,0,0,0,.125.094l.65.575,0-.005.939,1.129.192.214.018-.006c-.015.124-.089.29-.036.365A4.327,4.327,0,0,1,852.9,522a5.114,5.114,0,0,1-.468,2.531,5.361,5.361,0,0,1-3.993,3.238,4.129,4.129,0,0,1-3.2-.249c-.2-.129-.552-.027-.834-.031A9.219,9.219,0,0,1,841.79,524.5Z" transform="translate(-835.507 -481.621)" fill="#0c4855"/>
        <path id="Trazado_262" data-name="Trazado 262" d="M851.718,343.654l-.192.215C851.455,343.676,851.5,343.586,851.718,343.654Z" transform="translate(-843.981 -336.131)" fill="#efb264"/>
        <path id="Trazado_263" data-name="Trazado 263" d="M858.57,338.747l-.155.128Z" transform="translate(-849.806 -332.021)" fill="#1dc6a3"/>
        <path id="Trazado_264" data-name="Trazado 264" d="M855.985,340.928l-.181.144Z" transform="translate(-847.608 -333.856)" fill="#1dc6a3"/>
        <path id="Trazado_265" data-name="Trazado 265" d="M908.154,390.835l.142-.151Z" transform="translate(-891.67 -375.734)" fill="#1dc6a3"/>
        <path id="Trazado_266" data-name="Trazado 266" d="M899.023,522.8a.105.105,0,0,1-.124-.094A.1.1,0,0,1,899.023,522.8Z" transform="translate(-883.88 -486.85)" fill="#efb264"/>
        <path id="Trazado_267" data-name="Trazado 267" d="M903.764,526.765l0,.005.032-.031Z" transform="translate(-887.975 -490.248)" fill="#efb264"/>
        <path id="Trazado_268" data-name="Trazado 268" d="M909.886,534.247l-.192-.214Z" transform="translate(-892.966 -496.387)" fill="#147489"/>
      </g>
      <ellipse id="Elipse_1" data-name="Elipse 1" cx="5.753" cy="5.753" rx="5.753" ry="5.753" transform="translate(5.958 6.061)" fill="#117a57"/>
    </g>
    <text id="Logo" transform="translate(53.725 34.333)" fill="#147489" font-size="31" font-family="Source Sans Pro" font-weight="700" letter-spacing="0.2em"><tspan x="0" y="0">AMPEIN</tspan></text>
  </g>
</svg>
